<?xml version="1.0" encoding="iso-8859-1"?>
<!-- Generator: Adobe Illustrator 19.0.0, SVG Export Plug-In . SVG Version: 6.00 Build 0)  -->
<svg version="1.1" id="Layer_1" xmlns="http://www.w3.org/2000/svg" xmlns:xlink="http://www.w3.org/1999/xlink" x="0px" y="0px"
	 viewBox="0 0 512 512" style="enable-background:new 0 0 512 512;" xml:space="preserve">
<g>
	<g>
		<path d="M90,105v120c0,19.828,30,19.828,30,0V105C120,85.172,90,85.172,90,105z"/>
	</g>
</g>
<g>
	<g>
		<path d="M105,330c-8.276,0-15,6.724-15,15s6.724,15,15,15s15-6.724,15-15S113.276,330,105,330z"/>
	</g>
</g>
<g>
	<g>
		<path d="M225,120h22.728l25.854,51.709C276.131,176.792,281.316,180,287,180h150c5.684,0,10.869-3.208,13.418-8.291l26.437-52.872
			C496.932,114.322,512,96.42,512,75V45c0-24.814-20.186-45-45-45H75C33.647,0,0,33.647,0,75c0,158.011,0,272.278,0,422
			c0,8.291,6.709,15,15,15h480c8.291,0,17-6.709,17-15v-30c0-24.595-19.849-44.586-44.361-44.936
			c3.371-9.3,3.741-21.351,0.606-30.702l-1.025-3.56C492.915,381.021,512,357.801,512,330c0-33.091-26.909-60-60-60h-10.796
			l10.342-41.367C453.92,219.2,446.767,210,437,210H287c-9.767,0-16.92,9.2-14.546,18.633l14.02,56.082l-16.053,55.765
			c-0.005,0.018-0.011,0.037-0.011,0.037l-14.465,50.246c-3.263,9.76-2.932,21.915,0.41,31.238H210V135
			C210,126.724,216.724,120,225,120z M442.727,120l-14.999,30H296.272l-15-30H442.727z M60,105c0-59.44,90-59.487,90,0v120
			c0,59.44-90,59.487-90,0V105z M105,300c24.814,0,45,20.186,45,45c0,24.814-20.186,45-45,45c-24.814,0-45-20.186-45-45
			C60,320.186,80.186,300,105,300z M452,300c16.538,0,30,13.462,30,30c0,14.123-10.02,25.45-23.187,28.619L441.929,300H452z
			 M313.294,300h97.412l9.082,31.505c-3.898-0.945-7.927-1.49-12.041-1.49c-17.109,0-32.988,8.496-42.48,22.734
			c-7.939,11.924-27.1,11.924-35.039,0c-6.407-9.615-15.855-16.192-26.448-19.724L313.294,300z M467,452c8.276,0,15,6.724,15,15v15
			H30v-30C181.08,452,315.346,452,467,452z"/>
	</g>
</g>
<g>
</g>
<g>
</g>
<g>
</g>
<g>
</g>
<g>
</g>
<g>
</g>
<g>
</g>
<g>
</g>
<g>
</g>
<g>
</g>
<g>
</g>
<g>
</g>
<g>
</g>
<g>
</g>
<g>
</g>
</svg>
