<?xml version="1.0" encoding="iso-8859-1"?>
<!-- Generator: Adobe Illustrator 19.0.0, SVG Export Plug-In . SVG Version: 6.00 Build 0)  -->
<svg version="1.1" id="Capa_1" xmlns="http://www.w3.org/2000/svg" xmlns:xlink="http://www.w3.org/1999/xlink" x="0px" y="0px"
	 viewBox="0 0 512 512" style="enable-background:new 0 0 512 512;" xml:space="preserve">
<g>
	<g>
		<path d="M493.575,376.441l-59.643-104.374l60.015-105.025c2.652-4.643,2.633-10.346-0.051-14.971
			c-2.684-4.625-7.627-7.471-12.974-7.471H287.057v-33.2c0-8.284-6.716-15-15-15H133.002c5.986-9.655,9.454-21.028,9.454-33.2
			c0-34.849-28.352-63.2-63.2-63.2C44.408,0,16.057,28.352,16.057,63.2c0,29.68,20.57,54.633,48.199,61.387v2.88v208.867V497
			c0,8.283,6.716,15,15,15s15-6.717,15-15V351.334h162.801v33.199c0,8.285,6.716,15,15,15h208.866c0.006,0,0.013,0,0.02,0
			c8.283,0,15-6.715,15-15C495.943,381.554,495.074,378.776,493.575,376.441z"/>
	</g>
</g>
<g>
</g>
<g>
</g>
<g>
</g>
<g>
</g>
<g>
</g>
<g>
</g>
<g>
</g>
<g>
</g>
<g>
</g>
<g>
</g>
<g>
</g>
<g>
</g>
<g>
</g>
<g>
</g>
<g>
</g>
</svg>
