<?xml version="1.0" encoding="iso-8859-1"?>
<!-- Generator: Adobe Illustrator 19.0.0, SVG Export Plug-In . SVG Version: 6.00 Build 0)  -->
<svg version="1.1" id="Layer_1" xmlns="http://www.w3.org/2000/svg" xmlns:xlink="http://www.w3.org/1999/xlink" x="0px" y="0px"
	 viewBox="0 0 512 512" style="enable-background:new 0 0 512 512;" xml:space="preserve">
<g>
	<g>
		<g>
			<path d="M506.979,334.99c-3.135-1.948-7.042-2.135-10.344-0.521c-9.292,4.552-18.865,6.865-28.458,6.865H43.823
				c-9.594,0-19.167-2.313-28.458-6.865c-3.302-1.615-7.208-1.427-10.344,0.521C1.896,336.938,0,340.354,0,344.042V384
				c0,23.531,19.135,42.667,42.667,42.667h426.667C492.865,426.667,512,407.531,512,384v-39.958
				C512,340.354,510.104,336.938,506.979,334.99z M426.667,405.333c-11.76,0-21.333-9.573-21.333-21.333
				c0-11.76,9.573-21.333,21.333-21.333S448,372.24,448,384C448,395.76,438.427,405.333,426.667,405.333z"/>
			<path d="M43.823,320h424.354C492.344,320,512,300.344,512,276.177c0-8.219-2.302-16.25-6.667-23.229L416.24,110.396
				c-9.802-15.688-26.708-25.063-45.219-25.063H140.979c-18.51,0-35.417,9.375-45.219,25.063L6.656,252.958
				C2.302,259.927,0,267.958,0,276.177C0,300.344,19.656,320,43.823,320z M231.563,163.552c6.292,0,11.844,1.354,16.74,2.542
				c4.725,1.146,8.556,1.223,12.591,0.813c-5.385-0.543-9.633-4.93-9.633-10.458c0-15.948,15.094-28.448,34.365-28.448
				c5.896,0,10.667,4.771,10.667,10.667c0,11.374-7.749,20.9-19.143,25.482c2.083-0.283,4.15-0.596,6.424-0.596
				c9.865,0,22.156,6.156,29.896,14.958c2.479,2.823,3.292,6.729,2.146,10.313c-1.146,3.573-4.094,6.271-7.75,7.125
				c-5.115,1.177-7.844,3.938-7.844,5.469c0,1.698,3.563,5.208,10.375,5.885c3.344,0.333,6.344,2.229,8.083,5.115
				c1.729,2.896,2,6.427,0.729,9.542c-6.771,16.5-22.563,34.042-38.521,34.042c-9.177,0-14.771-1.813-18.854-3.135
				c-4.271-1.375-4.26-1.375-8.531,0c-4.083,1.323-9.677,3.135-18.854,3.135C215.01,256,192,227.542,192,203.5
				C192,179.115,215.427,163.552,231.563,163.552z"/>
		</g>
	</g>
</g>
<g>
</g>
<g>
</g>
<g>
</g>
<g>
</g>
<g>
</g>
<g>
</g>
<g>
</g>
<g>
</g>
<g>
</g>
<g>
</g>
<g>
</g>
<g>
</g>
<g>
</g>
<g>
</g>
<g>
</g>
</svg>
