<?xml version="1.0" encoding="iso-8859-1"?>
<!-- Generator: Adobe Illustrator 19.0.0, SVG Export Plug-In . SVG Version: 6.00 Build 0)  -->
<svg version="1.1" id="Layer_1" xmlns="http://www.w3.org/2000/svg" xmlns:xlink="http://www.w3.org/1999/xlink" x="0px" y="0px"
	 viewBox="0 0 512 512" style="enable-background:new 0 0 512 512;" xml:space="preserve">
<g>
	<g>
		<g>
			<path d="M266.667,192h-21.333c-5.885,0-10.667,4.781-10.667,10.667V416c0,5.885,4.781,10.667,10.667,10.667h21.333
				c5.885,0,10.667-4.781,10.667-10.667V202.667C277.333,196.781,272.552,192,266.667,192z"/>
			<path d="M362.667,0H149.333c-35.292,0-64,28.708-64,64v384c0,35.292,28.708,64,64,64h213.333c35.292,0,64-28.708,64-64V64
				C426.667,28.708,397.958,0,362.667,0z M256,85.333c11.76,0,21.333,9.573,21.333,21.333c0,11.76-9.573,21.333-21.333,21.333
				s-21.333-9.573-21.333-21.333C234.667,94.906,244.24,85.333,256,85.333z M298.667,416c0,17.646-14.354,32-32,32h-21.333
				c-17.646,0-32-14.354-32-32V202.667c0-17.646,14.354-32,32-32h21.333c17.646,0,32,14.354,32,32V416z"/>
		</g>
	</g>
</g>
<g>
</g>
<g>
</g>
<g>
</g>
<g>
</g>
<g>
</g>
<g>
</g>
<g>
</g>
<g>
</g>
<g>
</g>
<g>
</g>
<g>
</g>
<g>
</g>
<g>
</g>
<g>
</g>
<g>
</g>
</svg>
