<?xml version="1.0" encoding="iso-8859-1"?>
<!-- Generator: Adobe Illustrator 19.0.0, SVG Export Plug-In . SVG Version: 6.00 Build 0)  -->
<svg version="1.1" id="Layer_1" xmlns="http://www.w3.org/2000/svg" xmlns:xlink="http://www.w3.org/1999/xlink" x="0px" y="0px"
	 viewBox="0 0 461.369 461.369" style="enable-background:new 0 0 461.369 461.369;" xml:space="preserve">
<g id="XMLID_190_">
	<g>
		<g>
			<path d="M305.505,405.063h-37.802V342.05c56.686-16.141,98.315-68.394,98.315-130.188c0-5.523-4.477-10-10-10s-10,4.477-10,10
				c0,63.595-51.739,115.334-115.334,115.334c-63.596,0-115.334-51.739-115.334-115.334c0-5.523-4.477-10-10-10
				c-5.523,0-10,4.477-10,10c0,61.793,41.629,114.046,98.315,130.188v63.013h-37.802c-15.524,0-28.153,12.629-28.153,28.153
				c0,15.524,12.629,28.153,28.153,28.153h149.642c15.524,0,28.153-12.629,28.153-28.153
				C333.659,417.692,321.029,405.063,305.505,405.063z"/>
			<path d="M225.466,308.486h10.439c27.752,0,52.813-11.066,70.566-31.161c16.952-19.188,26.288-45.358,26.288-73.692v-98.78
				c0-28.333-9.336-54.505-26.288-73.692C288.716,11.066,263.656,0,235.904,0h-10.439c-27.752,0-52.813,11.066-70.566,31.161
				c-16.952,19.188-26.288,45.359-26.288,73.692v98.78c0,28.334,9.336,54.505,26.288,73.692
				C172.652,297.42,197.714,308.486,225.466,308.486z M278.612,94.853h33.673c0.303,3.266,0.473,6.597,0.473,10v10h-34.146
				c-5.523,0-10-4.477-10-10C268.612,99.33,273.089,94.853,278.612,94.853z M278.612,137.353h34.146v20h-34.146
				c-5.523,0-10-4.477-10-10C268.612,141.83,273.089,137.353,278.612,137.353z M278.612,179.853h34.146v20h-34.146
				c-5.523,0-10-4.477-10-10C268.612,184.33,273.089,179.853,278.612,179.853z M148.612,104.853c0-3.403,0.17-6.734,0.473-10h31.823
				c5.523,0,10,4.477,10,10c0,5.523-4.477,10-10,10h-32.296V104.853z M148.612,137.353h32.296c5.523,0,10,4.477,10,10
				c0,5.523-4.477,10-10,10h-32.296V137.353z M148.612,179.853h32.296c5.523,0,10,4.477,10,10c0,5.523-4.477,10-10,10h-32.296
				V179.853z"/>
		</g>
	</g>
</g>
<g>
</g>
<g>
</g>
<g>
</g>
<g>
</g>
<g>
</g>
<g>
</g>
<g>
</g>
<g>
</g>
<g>
</g>
<g>
</g>
<g>
</g>
<g>
</g>
<g>
</g>
<g>
</g>
<g>
</g>
</svg>
