<?xml version="1.0" encoding="iso-8859-1"?>
<!-- Generator: Adobe Illustrator 17.1.0, SVG Export Plug-In . SVG Version: 6.00 Build 0)  -->
<!DOCTYPE svg PUBLIC "-//W3C//DTD SVG 1.1//EN" "http://www.w3.org/Graphics/SVG/1.1/DTD/svg11.dtd">
<svg version="1.1" id="Capa_1" xmlns="http://www.w3.org/2000/svg" xmlns:xlink="http://www.w3.org/1999/xlink" x="0px" y="0px"
	 viewBox="0 0 210.052 210.052" style="enable-background:new 0 0 210.052 210.052;" xml:space="preserve">
<path d="M26.461,195.6l-9.59,6.535c-2.419,1.649-5.717,1.024-7.366-1.396l-6.952-10.202c-1.649-2.42-1.024-5.718,1.396-7.366
	l19.541-13.316c0.154,1.437,0.318,2.874,0.498,4.31l0.744,8.405l0.012,0.116c0.437,3.708,0.747,5.928,1.105,8.497
	c0.175,1.25,0.362,2.593,0.584,4.247C26.44,195.487,26.453,195.542,26.461,195.6z M206.104,73.185L70.035,165.907
	c-0.699-9.155-0.842-18.333-0.428-27.479l67.173-45.774l-13.492-19.799c-0.513-0.754-0.319-1.781,0.435-2.294l58.053-39.559
	c0.754-0.514,1.781-0.319,2.294,0.435l13.492,19.799l9.938,14.583C209.148,68.238,208.524,71.536,206.104,73.185z M184.496,42.869
	c-1.245-1.826-3.733-2.297-5.558-1.053l-44.566,30.369c-1.826,1.244-2.297,3.732-1.053,5.558c0.774,1.136,2.031,1.748,3.309,1.748
	c0.776,0,1.56-0.225,2.249-0.695l44.566-30.369C185.269,47.183,185.74,44.694,184.496,42.869z M97.415,22.911l-5.024,8.778
	c-26.006,45.435-36.151,98.984-28.568,150.784l1.465,10.008c1.173,8.006-3.875,15.567-11.491,17.213
	c-2.078,0.45-4.251,0.476-6.365,0.075c-8.326-1.577-12.211-8.991-13.071-15.403c-0.224-1.671-0.413-3.027-0.589-4.29
	c-0.351-2.511-0.653-4.681-1.077-8.269l-0.745-8.422l-0.016-0.148c-6.176-48.968,3.536-99.155,28.086-145.136l4.723-9.433
	c1.021-1.789,1.886-3.451,2.802-5.208c0.443-0.85,0.895-1.718,1.378-2.625C71.079,6.789,75.922,0,84.129,0
	c0.973,0,1.979,0.097,2.992,0.29c2.128,0.403,4.112,1.21,5.896,2.398C99.502,7.005,101.434,15.889,97.415,22.911z M50.031,189.987
	c-1.857,0.057-3.567,1.223-4.3,2.93c-1.454,3.388,1.044,7.053,4.729,6.939c1.857-0.057,3.567-1.223,4.3-2.93
	C56.213,193.538,53.716,189.873,50.031,189.987z M84.093,10.202c-1.857,0.057-3.567,1.223-4.3,2.93
	c-1.454,3.388,1.044,7.053,4.728,6.939c1.857-0.058,3.567-1.223,4.3-2.93C90.275,13.753,87.778,10.088,84.093,10.202z"/>
<g>
</g>
<g>
</g>
<g>
</g>
<g>
</g>
<g>
</g>
<g>
</g>
<g>
</g>
<g>
</g>
<g>
</g>
<g>
</g>
<g>
</g>
<g>
</g>
<g>
</g>
<g>
</g>
<g>
</g>
</svg>
