<?xml version="1.0" encoding="iso-8859-1"?>
<!-- Generator: Adobe Illustrator 19.0.0, SVG Export Plug-In . SVG Version: 6.00 Build 0)  -->
<svg version="1.1" id="Capa_1" xmlns="http://www.w3.org/2000/svg" xmlns:xlink="http://www.w3.org/1999/xlink" x="0px" y="0px"
	 viewBox="0 0 512 512" style="enable-background:new 0 0 512 512;" xml:space="preserve">
<g>
	<g>
		
	</g>
</g>
<g>
	<g>

	</g>
</g>
<g>
	<g>
		<path d="M256,118.857c-30.254,0-54.857,24.603-54.857,54.857s24.603,54.857,54.857,54.857s54.857-24.603,54.857-54.857
			S286.254,118.857,256,118.857z M256,210.286c-20.169,0-36.571-16.402-36.571-36.571s16.402-36.571,36.571-36.571
			s36.571,16.402,36.571,36.571S276.169,210.286,256,210.286z"/>
	</g>
</g>
<g>
	<g>
	</g>
</g>
<g>
	<g>
		<path d="M91.429,54.857V512h329.143V54.857H91.429z M402.286,484.571c0,5.047-4.096,9.143-9.143,9.143H118.857
			c-5.047,0-9.143-4.096-9.143-9.143V82.286h0c0-5.047,4.096-9.143,9.143-9.143h274.286c5.047,0,9.143,4.096,9.143,9.143V484.571z"
			/>
	</g>
</g>
<g>
	<g>
		<path d="M256,283.429c-45.376,0-82.286,36.919-82.286,82.286S210.624,448,256,448s82.286-36.919,82.286-82.286
			S301.376,283.429,256,283.429z M256,420.571c-30.254,0-54.857-24.603-54.857-54.857c0-30.254,24.603-54.857,54.857-54.857
			s54.857,24.603,54.857,54.857C310.857,395.968,286.245,420.571,256,420.571z"/>
	</g>
</g>
<g>
	<g>
		<path d="M128,91.429v384h256v-384H128z M256,100.571c40.329,0,73.143,32.814,73.143,73.143S296.329,246.857,256,246.857
			s-73.143-32.814-73.143-73.143S215.671,100.571,256,100.571z M256,466.286c-55.451,0-100.571-45.12-100.571-100.571
			S200.549,265.143,256,265.143s100.571,45.12,100.571,100.571S311.451,466.286,256,466.286z"/>
	</g>
</g>
<g>
</g>
<g>
</g>
<g>
</g>
<g>
</g>
<g>
</g>
<g>
</g>
<g>
</g>
<g>
</g>
<g>
</g>
<g>
</g>
<g>
</g>
<g>
</g>
<g>
</g>
<g>
</g>
<g>
</g>
</svg>
