<svg version="1" xmlns="http://www.w3.org/2000/svg" width="682.667" height="682.667" viewBox="0 0 512.000000 512.000000"><path d="M0 143.5V287h53V0H0v143.5zM79 141.9c0 78.1-.3 142.6-.6 143.5-.5 1.4 1.7 1.6 21 1.6H121V0H79v141.9zM192 141.2c0 77.7-.3 142.3-.6 143.6-.6 2.2-.5 2.2 10.1 2.2 9.4 0 10.6-.2 10.1-1.6-.3-.9-.6-65.4-.6-143.5V0h-19v141.2zM259 143.5V287h20.5l-.3-143.5L279 0h-20v143.5zM305 141.9c0 78.1-.3 142.6-.6 143.5-.5 1.4 1.7 1.6 21 1.6H347V0h-42v141.9zM395 143.5V287h21.6c19.3 0 21.5-.2 21-1.6-.3-.9-.6-65.4-.6-143.5V0h-42v143.5zM463 143.5V287h21.6c19.3 0 21.5-.2 21-1.6-.3-.9-.6-65.4-.6-143.5V0h-42v143.5zM418.5 368.4c-7.2 1.8-11.4 4.2-12.1 7.2-1.2 4.6.1 13.6 2.1 15 4.4 3.3 9.2 1 11.2-5.1 1.3-4.2 4.7-5.7 11.2-5.1 6.4.6 10.2 3 11.5 7.4 1.8 6.5-1.3 10.9-11.6 16.4-8.8 4.7-10.8 7.5-10.8 15.3 0 5.5.3 6.6 2.2 7.9 2.9 2 7.7 2 10.6 0 1.7-1.2 2.2-2.5 2.2-5.8 0-4.2.1-4.3 4.3-5.5 18-5.3 26.5-21.1 19.2-35.8-4.7-9.3-12.9-13.4-26.8-13.2-4.5 0-10.4.6-13.2 1.3zM28.4 372.8c-1.6 1-3.4 4.8-3.4 7 0 2.9 3.8 7.2 6.5 7.2s2.2-2.6 6.5 36.4c1.7 15.4 3.6 28.8 4.1 29.8.8 1.4 2.2 1.8 6.4 1.8 4.6 0 5.7-.4 7-2.3.8-1.3 4.4-12 7.9-23.8s6.7-20.7 7-19.9c.3.8 3.5 10.9 7.1 22.5 3.9 12.9 7.1 21.5 8.1 22.2 2.5 1.8 10.9 1.7 12.4-.2.9-1.1 7.9-57.6 8-64.8 0-1.1.8-1.7 2.5-1.7 3.6 0 6.5-3.3 6.5-7.5 0-2.2-.8-4.3-2-5.5-1.8-1.8-3.3-2-15.2-2-7.3 0-13.8.4-14.5.8-.6.4-1.7 2-2.3 3.6-1.9 5.2 1.3 10.6 6.3 10.6h3l-.7 11.2c-.4 6.2-.9 15.3-1.3 20.2l-.6 9-4.3-14.9c-2.3-8.1-4.8-15.8-5.4-17-1.4-2.6-5-4.5-8.6-4.5-5.1 0-7.7 4.3-12.5 21l-4.4 15.5-.7-11c-.3-6.1-.9-15.2-1.3-20.3l-.6-9.2h2.8c3.4 0 4.6-.8 6.2-3.7 1.7-3.3 1.3-7.1-.9-9.3-1.8-1.8-3.3-2-15.2-2-7.3 0-13.8.4-14.4.8zM225.3 372.8c-1.9 1.2-3.4 6.1-2.7 8.8 1 4.1 4.1 5.4 12.6 5.4h7.8v51.7l-7.8.6c-9.9.8-10.9 1.2-12.2 5.1-1.3 3.9-.1 8 2.9 9.5 1.2.7 11.1 1.1 26.4 1.1 23.2 0 24.6-.1 27.1-2.1 2.9-2.3 3.6-7.2 1.3-10.3-1.5-2.1-7.4-3.5-14.4-3.6H261v-52h8.5c9.9 0 12.5-1.5 12.5-7.5 0-2.2-.8-4.3-2-5.5-1.9-1.9-3.3-2-27.7-2-14.2 0-26.3.4-27 .8zM419.3 436c-10.4 6.3-4.5 20 8.8 20 9.1 0 15.4-7.3 12.8-14.9-2.3-6.6-14.4-9.5-21.6-5.1z"/></svg>