<svg width="360" height="42" viewBox="0 0 360 42" fill="none" xmlns="http://www.w3.org/2000/svg">
<path d="M0 0H80Z" transform="translate(248.947 21)" fill="#C4C4C4" width="100%" height="100%"/>
<path d="M0 0H80" transform="translate(248.947 21)" stroke="#E0E0E0" width="100%" height="100%"/>
<line y1="-0.5" x2="80" y2="-0.5" transform="translate(141.144 21)" stroke="#E0E0E0" width="100%" height="100%"/>
<line y1="-0.5" x2="80" y2="-0.5" transform="translate(38.4714 21)" stroke="#E0E0E0" width="100%" height="100%"/>
<circle cx="21" cy="21" r="21" transform="translate(318)" fill="#E0E0E0" width="100%" height="100%"/>
<path d="M20.6214 0.303504L1.12288 11.5479C-0.4895 12.4807 -0.334825 14.8664 1.39004 15.5742L6.74744 17.7912V21.7472C6.74744 23.922 9.52223 24.8172 10.8065 23.0877L12.8595 20.3176L18.1044 22.483C18.3809 22.5955 18.6715 22.6518 18.9621 22.6518C19.3465 22.6518 19.7261 22.5534 20.0683 22.3612C20.6682 22.0237 21.0807 21.4238 21.1885 20.7441L23.9727 2.59551C24.2586 0.715972 22.2431 -0.629237 20.6214 0.303504V0.303504ZM8.99727 21.7472V18.7193L10.7128 19.427L8.99727 21.7472ZM18.9621 20.402L11.7533 17.4256L18.3247 7.94354C18.8262 7.21703 17.8794 6.37335 17.2138 6.94987L7.30052 15.5883L2.24779 13.4978L21.7463 2.24867L18.9621 20.402Z" transform="translate(326 8)" fill="white" width="100%" height="100%"/>
<circle cx="21" cy="21" r="21" transform="translate(210)" fill="#E0E0E0" width="100%" height="100%"/>
<path d="M23.6802 0.895494C23.6193 0.609499 23.3942 0.384453 23.1082 0.323503C21.5986 0 20.4171 0 19.2403 0C14.4018 0 11.4996 2.58803 9.33357 6.00122H4.4482C3.5949 6.00122 2.81662 6.48413 2.43686 7.24366L0.120761 11.8758C-0.254315 12.626 0.289545 13.5027 1.12878 13.5027H5.5875C5.31088 14.1029 5.02957 14.6983 4.74357 15.2703C4.59823 15.561 4.65449 15.9079 4.88423 16.1377L7.86608 19.1195C8.09582 19.3492 8.44276 19.4055 8.73345 19.2602C9.30544 18.9742 9.90087 18.6975 10.501 18.4209V22.8796C10.501 23.7142 11.3824 24.258 12.1279 23.8877L16.7554 21.5716C17.5196 21.1918 17.9978 20.4088 17.9978 19.5602V14.6655C21.4016 12.4947 23.999 9.5832 23.999 4.76816C24.0037 3.58667 24.0037 2.40518 23.6802 0.895494V0.895494ZM18.7527 7.50152C17.5102 7.50152 16.5022 6.49351 16.5022 5.25107C16.5022 4.00863 17.5102 3.00061 18.7527 3.00061C19.9951 3.00061 21.0031 4.00863 21.0031 5.25107C21.0031 6.49351 19.9951 7.50152 18.7527 7.50152Z" transform="translate(218 10)" fill="#FBFBFB" width="100%" height="100%"/>
<circle cx="21" cy="21" r="21" transform="translate(105)" fill="#E0E0E0"/>
<path d="M14 3.5C11.6803 3.5 9.8 5.69376 9.8 8.4C9.8 11.1058 11.6802 13.3 14 13.3C16.3188 13.3 18.2 11.1068 18.2 8.4C18.2 5.69376 16.3197 3.5 14 3.5ZM16.1 10.6937C16.1 11.0208 15.9286 11.2 15.5937 11.2H12.6497C12.3147 11.2 12.1433 11.0208 12.1433 10.6937V10.3043C12.1433 9.97719 12.3147 9.79803 12.6497 9.79803H13.3116V8.05337C13.3116 7.82749 13.335 7.59386 13.335 7.59386H13.3194C13.3194 7.59386 13.2416 7.71067 13.1948 7.7574C13.0001 7.94434 12.7353 7.95213 12.5094 7.71067L12.268 7.43807C12.0343 7.2044 12.05 6.94737 12.2914 6.72149L13.2416 5.84916C13.4363 5.67 13.6076 5.59991 13.8725 5.59991H14.4021C14.7371 5.59991 14.9162 5.77124 14.9162 6.10619V9.79799H15.5938C15.9287 9.79799 16.1 9.9771 16.1 10.3043V10.6937H16.1ZM26.95 0H1.05C0.470094 0 0 0.470094 0 1.05V15.7062C0 16.2862 0.470094 16.7562 1.05 16.7562H26.95C27.5299 16.7562 28 16.2862 28 15.7062V1.05C28 0.470094 27.5299 0 26.95 0ZM22.4 14.7H5.6C5.6 12.767 4.03301 11.2 2.1 11.2V5.6C4.03301 5.6 5.6 4.03301 5.6 2.1H22.4C22.4 4.03301 23.967 5.6 25.9 5.6V11.2C23.967 11.2 22.4 12.767 22.4 14.7Z" transform="translate(112.426 12.7479)" fill="white" width="100%" height="100%"/>
<circle cx="21" cy="21" r="21" fill="#E0E0E0" width="100%" height="100%"/>
<path d="M0 11.818V2.25C0 1.00734 1.00734 0 2.25 0H11.818C12.4148 3.12036e-06 12.9871 0.237058 13.409 0.659016L23.341 10.591C24.2197 11.4697 24.2197 12.8943 23.341 13.773L13.773 23.341C12.8943 24.2197 11.4697 24.2197 10.591 23.341L0.659016 13.409C0.237058 12.9871 3.12036e-06 12.4148 0 11.818H0ZM5.25 3C4.00735 3 3 4.00735 3 5.25C3 6.49266 4.00735 7.5 5.25 7.5C6.49266 7.5 7.5 6.49266 7.5 5.25C7.5 4.00735 6.49266 3 5.25 3Z" transform="translate(9 10)" fill="white"/>
</svg>
